<svg width="63" height="48" viewBox="0 0 63 48" fill="none" xmlns="http://www.w3.org/2000/svg">
<rect x="0.35675" width="62" height="48" rx="16" fill="#D8FC73"/>
<path d="M32.3568 33V31C32.3568 29.9391 31.9353 28.9217 31.1852 28.1716C30.435 27.4214 29.4176 27 28.3568 27H20.3568C19.2959 27 18.2785 27.4214 17.5283 28.1716C16.7782 28.9217 16.3568 29.9391 16.3568 31V33" stroke="black" stroke-width="2" stroke-linecap="round" stroke-linejoin="round"/>
<path d="M24.3568 23C26.5659 23 28.3568 21.2091 28.3568 19C28.3568 16.7909 26.5659 15 24.3568 15C22.1476 15 20.3568 16.7909 20.3568 19C20.3568 21.2091 22.1476 23 24.3568 23Z" stroke="black" stroke-width="2" stroke-linecap="round" stroke-linejoin="round"/>
<path d="M39.3568 32.87V30.87C39.3561 29.9837 39.0611 29.1228 38.5181 28.4223C37.9751 27.7219 37.2149 27.2216 36.3568 27" stroke="black" stroke-width="2" stroke-linecap="round" stroke-linejoin="round"/>
<path d="M32.3568 15C33.2172 15.2203 33.9798 15.7207 34.5244 16.4223C35.069 17.1239 35.3646 17.9868 35.3646 18.875C35.3646 19.7632 35.069 20.6261 34.5244 21.3277C33.9798 22.0293 33.2172 22.5297 32.3568 22.75" stroke="black" stroke-width="2" stroke-linecap="round" stroke-linejoin="round"/>
<path d="M46.3568 32.87V30.87C46.3561 29.9837 46.0611 29.1228 45.5181 28.4223C44.9751 27.7219 44.2149 27.2216 43.3568 27" stroke="black" stroke-width="2" stroke-linecap="round" stroke-linejoin="round"/>
<path d="M39.3568 15C40.2172 15.2203 40.9798 15.7207 41.5244 16.4223C42.069 17.1239 42.3646 17.9868 42.3646 18.875C42.3646 19.7632 42.069 20.6261 41.5244 21.3277C40.9798 22.0293 40.2172 22.5297 39.3568 22.75" stroke="black" stroke-width="2" stroke-linecap="round" stroke-linejoin="round"/>
</svg>
