<svg width="82" height="82" viewBox="0 0 82 82" fill="none" xmlns="http://www.w3.org/2000/svg">
<path d="M81.1174 27.2929C80.1211 26.6704 79.0104 26.0781 78.3623 25.0336C78.3186 24.8513 78.3035 24.6493 78.3261 24.4217C78.2975 24.2062 78.2462 23.9997 78.1512 23.8038C78.1151 23.6998 78.0669 23.6063 78.0126 23.5174C78.2326 22.3207 77.2017 22.1866 76.4467 21.8173C76.3984 21.7178 76.3592 21.6123 76.3336 21.4948C76.2613 21.2868 76.1603 21.0909 76.0292 20.913C76.0201 20.8949 76.0126 20.8768 76.0035 20.8588C76.4105 17.3094 76.0337 13.7464 76.1482 10.1925C74.6591 7.34244 74.0367 7.08472 70.9274 8.01917C70.7872 8.06137 70.632 8.05835 70.4978 8.11261C69.4111 8.56325 68.7555 8.3206 68.4827 7.07266C68.2838 6.15781 67.693 6.19096 67.1293 6.82096C66.8731 7.10733 66.7013 7.46905 66.4918 7.7961C64.2883 10.5392 62.5701 13.4947 61.6522 16.806C61.5497 17.1014 61.4759 17.4073 61.4231 17.7193C61.2785 18.3584 61.1624 19.0095 61.078 19.6756C61.0463 19.7555 61.0132 19.8354 60.974 19.9153C60.9152 20.0479 60.861 20.1805 60.8188 20.3192C60.8082 20.3614 60.7931 20.4021 60.7811 20.4428C60.1586 21.1059 59.4247 21.7239 59.1127 22.5091C58.4555 24.1625 57.3493 24.8709 55.6748 25.0035C55.1292 25.0472 54.6499 25.3064 54.5203 25.9605C54.4419 26.3524 54.2475 26.687 53.9566 26.9538C53.8225 26.9477 53.6823 26.9191 53.5452 26.9055C53.3176 26.9357 53.1021 27.0125 52.8941 27.112C52.4208 27.3019 51.9264 27.2115 51.4381 27.2145C48.1977 27.2341 44.9573 27.1045 41.7184 27.2899C41.6099 27.3155 41.5029 27.3366 41.3943 27.3577C39.4305 27.3577 37.4682 27.3713 35.5043 27.3471C33.9037 27.326 32.5035 27.834 31.3129 28.8784C30.2051 29.8505 29.138 30.8679 28.2398 32.045C27.4003 32.791 26.5653 33.5431 25.7183 34.2816C25.3957 34.5635 25.1063 34.874 25.4741 35.2658C26.4538 36.3118 25.7062 37.5477 25.869 38.6841C25.7363 39.0021 25.5494 39.302 25.2947 39.5854C24.5336 39.7466 24.0378 40.2968 23.4394 40.7127C22.7401 41.198 21.9971 41.507 21.2374 41.6758C20.624 41.7919 20.0121 41.8356 19.3987 41.828C18.6767 41.7964 17.9563 41.6668 17.2585 41.4648C15.1967 40.8665 13.2343 40.672 11.1831 41.1242C8.70077 41.6713 8.48224 42.2063 9.77991 44.3887C9.92611 44.6329 10.0994 44.8695 10.1522 45.1152C10.119 45.3428 10.0376 45.5673 9.90802 45.7964C9.90048 45.804 9.89445 45.8115 9.88692 45.819C8.44003 47.2056 7.10467 48.7339 5.19207 49.5342C3.96222 50.2471 2.73237 50.96 1.50252 51.6729C0.935821 52.0015 0.411335 52.3617 0.400785 53.1137C0.320905 58.1869 0.244026 63.26 0.161131 68.3332C0.14606 69.2631 0.598214 69.6655 1.5206 69.6535C6.1009 69.5962 10.6827 69.554 15.263 69.5073C15.9593 69.5721 16.6571 69.6429 17.3263 69.355C17.3263 69.3596 17.3263 69.3641 17.3263 69.3686C20.9601 69.2872 24.5999 69.5932 28.2307 69.2541C28.9888 69.4771 29.7876 68.6286 30.5291 69.2797C30.5427 69.3008 30.5563 69.3204 30.5683 69.343C30.5728 69.352 30.5789 69.3611 30.5834 69.3701C30.4402 69.6655 30.2594 69.9504 30.1689 70.2608C29.7213 71.7891 30.193 72.6015 31.5148 73.3792C31.9926 73.661 32.5473 73.8298 33.0356 74.1026C33.1697 74.2292 33.2812 74.386 33.3521 74.5985C33.4078 74.9165 33.2873 75.2782 33.5917 75.5344C33.6897 75.5676 33.7876 75.6023 33.8871 75.6354C35.6731 74.3076 37.3762 72.9089 38.1147 70.6889C38.1449 70.5005 38.1795 70.3121 38.2157 70.1237C38.9135 68.6316 39.007 66.9842 39.1969 65.3625C39.2421 64.9737 39.0627 64.7099 38.7101 64.5547C37.9911 63.8086 38.3091 63.4771 39.1848 63.3972C39.9942 63.3218 40.8322 63.5253 41.6084 63.141C42.5353 63.1832 43.3974 62.9285 44.2324 62.5562C44.8955 62.5306 45.5029 62.3376 46.05 61.9593C46.5293 61.7468 47.0086 61.5358 47.4893 61.3233C48.2957 61.3158 48.9694 60.9721 49.5949 60.5019C49.5949 60.5034 49.5964 60.5064 49.5979 60.5079C49.9551 60.3949 50.4615 60.3331 50.4193 59.8779C50.3786 59.4454 49.8616 59.3791 49.4969 59.3323C48.6815 59.2283 48.0033 59.569 47.4261 60.1281C45.9988 60.3859 44.5624 60.523 43.111 60.4914C41.8013 60.7129 41.741 60.6813 41.848 59.8297C43.8541 58.4959 46.062 57.902 48.466 57.7378C50.3062 57.6111 52.252 57.7845 53.9235 56.7536C54.0259 56.7536 54.1299 56.7581 54.2339 56.7686C54.4615 56.7626 54.6484 56.6571 54.8202 56.52C54.8881 56.4175 54.9664 56.3331 55.0478 56.2577C56.3922 56.0814 57.5527 55.4288 58.6907 54.7204C58.8097 54.8621 58.9303 55.0037 59.0493 55.1454C58.876 55.587 58.6861 56.0241 58.5384 56.4747C58.4601 56.7114 58.5128 57.0083 58.7449 57.1017C58.9363 57.1786 59.2151 57.1394 59.4201 57.0595C59.6808 56.9585 59.7562 56.6963 59.5618 56.4778C59.1971 56.0648 59.503 55.786 59.7125 55.477C59.8798 55.3549 60.0456 55.2313 60.2129 55.1092C61.0117 54.945 61.8226 54.8244 62.6063 54.6028C63.4714 54.3587 63.6131 53.8236 63.0509 53.0354C62.4058 54.4762 61.3629 54.321 60.243 53.8899C59.9311 53.3685 59.5919 52.8575 59.5528 52.223C59.0825 51.4378 58.9258 50.3918 58.0139 49.9653C57.6507 49.795 57.4352 49.6096 57.3327 49.4106C57.3056 49.2132 57.3086 49.0082 57.3327 48.7987C57.4081 48.6224 57.5392 48.44 57.711 48.2546C58.4209 47.4905 59.1986 46.8349 58.2023 45.7165C58.0335 45.5266 58.2189 44.9599 58.3304 44.5952C58.5429 43.8959 58.8203 43.2146 59.0705 42.5259C60.0456 41.1001 61.3357 39.8627 61.8557 38.1626C61.9718 38.0646 62.0923 37.9697 62.2219 37.8808C63.0388 37.5703 63.9763 38.2425 64.751 37.5703C64.7691 37.4934 64.7902 37.4226 64.8143 37.3532C65.5257 37.2101 65.904 36.5861 66.4164 36.1566C67.5769 35.9576 68.3637 35.5024 68.6983 34.1716C68.7721 33.8792 68.9108 33.6215 69.0992 33.4376C69.3614 33.2884 69.6568 33.1889 69.9959 33.1618C70.2492 33.2115 70.5234 33.3577 70.8068 33.626C71.5483 34.1098 72.2039 33.3487 72.9199 33.4783C74.0879 33.3397 74.7405 32.3901 75.6071 31.7752C77.6343 31.0759 79.6087 30.3313 81.2379 28.8166C82.0307 28.0796 82.091 27.9048 81.1083 27.2929H81.1174Z" fill="#6B2991"/>
</svg>
